<svg xmlns="http://www.w3.org/2000/svg" viewBox="0 0 100 100">
  <rect width="100" height="100" rx="8" fill="#BBADA0"/>
  <rect x="5" y="5" width="20" height="20" rx="3" fill="#EEE4DA"/>
  <rect x="28" y="5" width="20" height="20" rx="3" fill="#EDE0C8"/>
  <rect x="51" y="5" width="20" height="20" rx="3" fill="#F2B179"/>
  <rect x="74" y="5" width="20" height="20" rx="3" fill="#F59563"/>
  <rect x="5" y="28" width="20" height="20" rx="3" fill="rgba(238,228,218,0.35)"/>
  <rect x="28" y="28" width="20" height="20" rx="3" fill="#EEE4DA"/>
  <rect x="51" y="28" width="20" height="20" rx="3" fill="rgba(238,228,218,0.35)"/>
  <rect x="74" y="28" width="20" height="20" rx="3" fill="#F67C5F"/>
  <rect x="5" y="51" width="20" height="20" rx="3" fill="#EDE0C8"/>
  <rect x="28" y="51" width="20" height="20" rx="3" fill="rgba(238,228,218,0.35)"/>
  <rect x="51" y="51" width="20" height="20" rx="3" fill="#EDCF72"/>
  <rect x="74" y="51" width="20" height="20" rx="3" fill="rgba(238,228,218,0.35)"/>
  <rect x="5" y="74" width="20" height="20" rx="3" fill="rgba(238,228,218,0.35)"/>
  <rect x="28" y="74" width="20" height="20" rx="3" fill="#F2B179"/>
  <rect x="51" y="74" width="20" height="20" rx="3" fill="#EEE4DA"/>
  <rect x="74" y="74" width="20" height="20" rx="3" fill="#EDC22E"/>
  <text x="15" y="20" font-family="sans-serif" font-size="10" font-weight="bold" fill="#776E65" text-anchor="middle">2</text>
  <text x="38" y="20" font-family="sans-serif" font-size="10" font-weight="bold" fill="#776E65" text-anchor="middle">4</text>
  <text x="61" y="20" font-family="sans-serif" font-size="10" font-weight="bold" fill="#FFF" text-anchor="middle">8</text>
  <text x="84" y="20" font-family="sans-serif" font-size="9" font-weight="bold" fill="#FFF" text-anchor="middle">16</text>
</svg>
